<svg height="512" viewBox="0 0 128 128" width="512" xmlns="http://www.w3.org/2000/svg"><g><path d="m100.634 78.15a18.7 18.7 0 0 0 -18.711-17.9h-.975a24.063 24.063 0 1 0 -33.9 0h-.975a18.7 18.7 0 0 0 -18.711 17.9l-1.281 28.9a1.749 1.749 0 0 0 1.671 1.826h.078a1.749 1.749 0 0 0 1.747-1.672l1.281-28.9a15.188 15.188 0 0 1 14.46-14.517l9.7 11.035a1.748 1.748 0 0 0 2.15.382l1.438-.781 3.539 4.617-4.785 27.788a1.75 1.75 0 0 0 3.45.594l3.19-18.522 3.189 18.525a1.751 1.751 0 0 0 1.723 1.453 1.792 1.792 0 0 0 .3-.025 1.751 1.751 0 0 0 1.428-2.022l-4.786-27.791 3.539-4.617 1.438.781a1.748 1.748 0 0 0 2.15-.382l9.7-11.035a15.188 15.188 0 0 1 14.457 14.519l1.281 28.9a1.749 1.749 0 0 0 1.747 1.672h.078a1.749 1.749 0 0 0 1.671-1.826zm-57.2-34.962a20.563 20.563 0 1 1 20.566 20.562 20.586 20.586 0 0 1 -20.563-20.562zm13.291 28.274-6.78-7.712h1.569a23.886 23.886 0 0 0 10.736 3.429v1.28zm7.275 4.245-2.28-2.976 2.28-1.239 2.28 1.239zm7.275-4.245-5.525-3v-1.28a23.886 23.886 0 0 0 10.736-3.432h1.569z"/><path d="m59.524 49.413a1.75 1.75 0 0 0 -3.5 0 7.984 7.984 0 0 0 6.226 7.775v1.783a1.75 1.75 0 1 0 3.5 0v-1.783a7.968 7.968 0 0 0 0-15.551v-8.792a4.48 4.48 0 0 1 2.726 4.117 1.75 1.75 0 0 0 3.5 0 7.984 7.984 0 0 0 -6.226-7.775v-1.787a1.75 1.75 0 1 0 -3.5 0v1.783a7.968 7.968 0 0 0 0 15.551v8.796a4.48 4.48 0 0 1 -2.726-4.117zm8.952 0a4.48 4.48 0 0 1 -2.726 4.117v-8.23a4.482 4.482 0 0 1 2.726 4.113zm-8.952-12.451a4.48 4.48 0 0 1 2.726-4.117v8.235a4.483 4.483 0 0 1 -2.726-4.118z"/><path d="m85.573 82.813a1.749 1.749 0 0 0 -1.75 1.75v22.562a1.75 1.75 0 0 0 3.5 0v-22.562a1.749 1.749 0 0 0 -1.75-1.75z"/><path d="m42.427 82.813a1.749 1.749 0 0 0 -1.75 1.75v22.562a1.75 1.75 0 0 0 3.5 0v-22.562a1.749 1.749 0 0 0 -1.75-1.75z"/><path d="m78.5 84.25h-4.875a1.75 1.75 0 0 0 0 3.5h4.875a1.75 1.75 0 0 0 0-3.5z"/></g></svg>